<?xml version="1.0" encoding="UTF-8" standalone="no"?><!DOCTYPE svg PUBLIC "-//W3C//DTD SVG 1.1//EN" "http://www.w3.org/Graphics/SVG/1.1/DTD/svg11.dtd"><!-- Generated by graphviz version 2.40.1 (20161225.0304)
 --><!-- Title: Taskflow Pages: 1 --><svg xmlns="http://www.w3.org/2000/svg" xmlns:xlink="http://www.w3.org/1999/xlink" width="346pt" height="245pt" viewBox="0.00 0.00 346.00 244.80">
<g id="graph0" class="graph" transform="scale(1 1) rotate(0) translate(4 240.8)">
<title>Taskflow</title>
<polygon fill="#ffffff" stroke="transparent" points="-4,4 -4,-240.8 342,-240.8 342,4 -4,4"/>
<g id="clust1" class="cluster">
<title>cluster_p0x7ffe212871f0</title>
<polygon fill="none" stroke="#000000" points="8,-8 8,-228.8 180,-228.8 180,-8 8,-8"/>
<text text-anchor="middle" x="94" y="-212.2" font-family="Times,serif" font-size="14.00" fill="#000000">Taskflow: B</text>
</g>
<g id="clust2" class="cluster">
<title>cluster_p0x7ffe21287160</title>
<polygon fill="none" stroke="#000000" points="188,-80 188,-228.8 330,-228.8 330,-80 188,-80"/>
<text text-anchor="middle" x="259" y="-212.2" font-family="Times,serif" font-size="14.00" fill="#000000">Taskflow: A</text>
</g>
<!-- p0x55d9c100b210 -->
<g id="node1" class="node">
<title>p0x55d9c100b210</title>
<ellipse fill="none" stroke="#000000" cx="58" cy="-34" rx="27" ry="18"/>
<text text-anchor="middle" x="58" y="-29.8" font-family="Times,serif" font-size="14.00" fill="#000000">B3</text>
</g>
<!-- p0x55d9c100b320 -->
<g id="node2" class="node">
<title>p0x55d9c100b320</title>
<ellipse fill="none" stroke="#000000" cx="130" cy="-34" rx="27" ry="18"/>
<text text-anchor="middle" x="130" y="-29.8" font-family="Times,serif" font-size="14.00" fill="#000000">B2</text>
</g>
<!-- p0x55d9c100b430 -->
<g id="node3" class="node">
<title>p0x55d9c100b430</title>
<ellipse fill="none" stroke="#000000" cx="94" cy="-178" rx="27" ry="18"/>
<text text-anchor="middle" x="94" y="-173.8" font-family="Times,serif" font-size="14.00" fill="#000000">B1</text>
</g>
<!-- p0x55d9c100b570 -->
<g id="node4" class="node">
<title>p0x55d9c100b570</title>
<polygon fill="none" stroke="#0000ff" points="171.951,-124 16.049,-124 16.049,-88 171.951,-88 171.951,-124"/>
<text text-anchor="middle" x="94" y="-101.8" font-family="Times,serif" font-size="14.00" fill="#000000">module-A [Taskflow: A]</text>
</g>
<!-- p0x55d9c100b430&#45;&gt;p0x55d9c100b570 -->
<g id="edge1" class="edge">
<title>p0x55d9c100b430-&gt;p0x55d9c100b570</title>
<path fill="none" stroke="#000000" d="M94,-159.8314C94,-152.131 94,-142.9743 94,-134.4166"/>
<polygon fill="#000000" stroke="#000000" points="97.5001,-134.4132 94,-124.4133 90.5001,-134.4133 97.5001,-134.4132"/>
</g>
<!-- p0x55d9c100b570&#45;&gt;p0x55d9c100b210 -->
<g id="edge3" class="edge">
<title>p0x55d9c100b570-&gt;p0x55d9c100b210</title>
<path fill="none" stroke="#000000" d="M84.9157,-87.8314C80.7726,-79.5451 75.7863,-69.5727 71.2374,-60.4748"/>
<polygon fill="#000000" stroke="#000000" points="74.3115,-58.7967 66.7089,-51.4177 68.0505,-61.9273 74.3115,-58.7967"/>
</g>
<!-- p0x55d9c100b570&#45;&gt;p0x55d9c100b320 -->
<g id="edge2" class="edge">
<title>p0x55d9c100b570-&gt;p0x55d9c100b320</title>
<path fill="none" stroke="#000000" d="M103.0843,-87.8314C107.2274,-79.5451 112.2137,-69.5727 116.7626,-60.4748"/>
<polygon fill="#000000" stroke="#000000" points="119.9495,-61.9273 121.2911,-51.4177 113.6885,-58.7967 119.9495,-61.9273"/>
</g>
<!-- p0x55d9c100ae70 -->
<g id="node5" class="node">
<title>p0x55d9c100ae70</title>
<ellipse fill="none" stroke="#000000" cx="223" cy="-106" rx="27" ry="18"/>
<text text-anchor="middle" x="223" y="-101.8" font-family="Times,serif" font-size="14.00" fill="#000000">A3</text>
</g>
<!-- p0x55d9c100afa0 -->
<g id="node6" class="node">
<title>p0x55d9c100afa0</title>
<ellipse fill="none" stroke="#000000" cx="295" cy="-106" rx="27" ry="18"/>
<text text-anchor="middle" x="295" y="-101.8" font-family="Times,serif" font-size="14.00" fill="#000000">A2</text>
</g>
<!-- p0x55d9c100b0d0 -->
<g id="node7" class="node">
<title>p0x55d9c100b0d0</title>
<ellipse fill="none" stroke="#000000" cx="259" cy="-178" rx="27" ry="18"/>
<text text-anchor="middle" x="259" y="-173.8" font-family="Times,serif" font-size="14.00" fill="#000000">A1</text>
</g>
<!-- p0x55d9c100b0d0&#45;&gt;p0x55d9c100ae70 -->
<g id="edge5" class="edge">
<title>p0x55d9c100b0d0-&gt;p0x55d9c100ae70</title>
<path fill="none" stroke="#000000" d="M250.2854,-160.5708C246.0403,-152.0807 240.8464,-141.6929 236.1337,-132.2674"/>
<polygon fill="#000000" stroke="#000000" points="239.237,-130.6477 231.6343,-123.2687 232.976,-133.7782 239.237,-130.6477"/>
</g>
<!-- p0x55d9c100b0d0&#45;&gt;p0x55d9c100afa0 -->
<g id="edge4" class="edge">
<title>p0x55d9c100b0d0-&gt;p0x55d9c100afa0</title>
<path fill="none" stroke="#000000" d="M267.7146,-160.5708C271.9597,-152.0807 277.1536,-141.6929 281.8663,-132.2674"/>
<polygon fill="#000000" stroke="#000000" points="285.024,-133.7782 286.3657,-123.2687 278.763,-130.6477 285.024,-133.7782"/>
</g>
</g>
</svg>