<?xml version="1.0" encoding="UTF-8" standalone="no"?>
<!DOCTYPE svg PUBLIC "-//W3C//DTD SVG 1.1//EN"
 "http://www.w3.org/Graphics/SVG/1.1/DTD/svg11.dtd">
<!-- Generated by graphviz version 2.40.1 (20161225.0304)
 -->
<!-- Title: Taskflow Pages: 1 -->
<svg width="405pt" height="317pt"
 viewBox="0.00 0.00 405.44 316.80" xmlns="http://www.w3.org/2000/svg" xmlns:xlink="http://www.w3.org/1999/xlink">
<g id="graph0" class="graph" transform="scale(1 1) rotate(0) translate(4 312.8)">
<title>Taskflow</title>
<polygon fill="#ffffff" stroke="transparent" points="-4,4 -4,-312.8 401.4396,-312.8 401.4396,4 -4,4"/>
<g id="clust1" class="cluster">
<title>cluster_p0x55b2191178a8</title>
<polygon fill="none" stroke="#a020f0" points="111.7198,-8 111.7198,-300.8 285.7198,-300.8 285.7198,-8 111.7198,-8"/>
<text text-anchor="middle" x="198.7198" y="-284.2" font-family="Times,serif" font-size="14.00" fill="#000000">cudaFlow: saxpy</text>
</g>
<!-- p0x55b219117698 -->
<g id="node1" class="node">
<title>p0x55b219117698</title>
<ellipse fill="none" stroke="#000000" cx="50.7198" cy="-106" rx="50.9405" ry="18"/>
<text text-anchor="middle" x="50.7198" y="-101.8" font-family="Times,serif" font-size="14.00" fill="#000000">allocate_x</text>
</g>
<!-- p0x55b2191178a8 -->
<g id="node2" class="node">
<title>p0x55b2191178a8</title>
<polygon fill="#00ffff" stroke="#000000" points="225.7198,-52 222.7198,-56 201.7198,-56 198.7198,-52 171.7198,-52 171.7198,-16 225.7198,-16 225.7198,-52"/>
<text text-anchor="middle" x="198.7198" y="-29.8" font-family="Times,serif" font-size="14.00" fill="#000000">saxpy</text>
</g>
<!-- p0x55b219117698&#45;&gt;p0x55b2191178a8 -->
<g id="edge1" class="edge">
<title>p0x55b219117698&#45;&gt;p0x55b2191178a8</title>
<path fill="none" stroke="#000000" d="M80.6698,-91.4297C104.1873,-79.9888 137.0374,-64.0076 162.115,-51.8077"/>
<polygon fill="#000000" stroke="#000000" points="163.8488,-54.8565 171.3101,-47.3345 160.7865,-48.5619 163.8488,-54.8565"/>
</g>
<!-- p0x55b2191177a0 -->
<g id="node3" class="node">
<title>p0x55b2191177a0</title>
<ellipse fill="none" stroke="#000000" cx="346.7198" cy="-106" rx="50.9405" ry="18"/>
<text text-anchor="middle" x="346.7198" y="-101.8" font-family="Times,serif" font-size="14.00" fill="#000000">allocate_y</text>
</g>
<!-- p0x55b2191177a0&#45;&gt;p0x55b2191178a8 -->
<g id="edge2" class="edge">
<title>p0x55b2191177a0&#45;&gt;p0x55b2191178a8</title>
<path fill="none" stroke="#000000" d="M316.7698,-91.4297C293.2522,-79.9888 260.4022,-64.0076 235.3246,-51.8077"/>
<polygon fill="#000000" stroke="#000000" points="236.653,-48.5619 226.1295,-47.3345 233.5907,-54.8565 236.653,-48.5619"/>
</g>
<!-- p0x7f2870401a50 -->
<g id="node4" class="node">
<title>p0x7f2870401a50</title>
<ellipse fill="none" stroke="#000000" cx="242.7198" cy="-250" rx="35.3587" ry="18"/>
<text text-anchor="middle" x="242.7198" y="-245.8" font-family="Times,serif" font-size="14.00" fill="#000000">h2d_x</text>
</g>
<!-- p0x7f2870402bc0 -->
<g id="node5" class="node">
<title>p0x7f2870402bc0</title>
<polygon fill="#000000" stroke="#ffffff" points="225.7198,-196 175.7198,-196 171.7198,-192 171.7198,-160 221.7198,-160 225.7198,-164 225.7198,-196"/>
<polyline fill="none" stroke="#ffffff" points="221.7198,-192 171.7198,-192 "/>
<polyline fill="none" stroke="#ffffff" points="221.7198,-192 221.7198,-160 "/>
<polyline fill="none" stroke="#ffffff" points="221.7198,-192 225.7198,-196 "/>
<text text-anchor="middle" x="198.7198" y="-173.8" font-family="Times,serif" font-size="14.00" fill="#ffffff">saxpy</text>
</g>
<!-- p0x7f2870401a50&#45;&gt;p0x7f2870402bc0 -->
<g id="edge3" class="edge">
<title>p0x7f2870401a50&#45;&gt;p0x7f2870402bc0</title>
<path fill="none" stroke="#000000" d="M232.0686,-232.5708C226.9418,-224.1815 220.6827,-213.9392 214.9775,-204.6035"/>
<polygon fill="#000000" stroke="#000000" points="217.9334,-202.7283 209.7324,-196.0206 211.9604,-206.3785 217.9334,-202.7283"/>
</g>
<!-- p0x7f2870402310 -->
<g id="node7" class="node">
<title>p0x7f2870402310</title>
<ellipse fill="none" stroke="#000000" cx="154.7198" cy="-106" rx="35.3587" ry="18"/>
<text text-anchor="middle" x="154.7198" y="-101.8" font-family="Times,serif" font-size="14.00" fill="#000000">d2h_x</text>
</g>
<!-- p0x7f2870402bc0&#45;&gt;p0x7f2870402310 -->
<g id="edge7" class="edge">
<title>p0x7f2870402bc0&#45;&gt;p0x7f2870402310</title>
<path fill="none" stroke="#000000" d="M187.6167,-159.8314C182.4996,-151.4579 176.3302,-141.3626 170.7234,-132.1878"/>
<polygon fill="#000000" stroke="#000000" points="173.565,-130.1255 165.3639,-123.4177 167.592,-133.7756 173.565,-130.1255"/>
</g>
<!-- p0x7f2870402780 -->
<g id="node8" class="node">
<title>p0x7f2870402780</title>
<ellipse fill="none" stroke="#000000" cx="242.7198" cy="-106" rx="35.3587" ry="18"/>
<text text-anchor="middle" x="242.7198" y="-101.8" font-family="Times,serif" font-size="14.00" fill="#000000">d2h_y</text>
</g>
<!-- p0x7f2870402bc0&#45;&gt;p0x7f2870402780 -->
<g id="edge8" class="edge">
<title>p0x7f2870402bc0&#45;&gt;p0x7f2870402780</title>
<path fill="none" stroke="#000000" d="M209.8228,-159.8314C214.94,-151.4579 221.1093,-141.3626 226.7162,-132.1878"/>
<polygon fill="#000000" stroke="#000000" points="229.8476,-133.7756 232.0756,-123.4177 223.8746,-130.1255 229.8476,-133.7756"/>
</g>
<!-- p0x7f2870401eb0 -->
<g id="node6" class="node">
<title>p0x7f2870401eb0</title>
<ellipse fill="none" stroke="#000000" cx="154.7198" cy="-250" rx="35.3587" ry="18"/>
<text text-anchor="middle" x="154.7198" y="-245.8" font-family="Times,serif" font-size="14.00" fill="#000000">h2d_y</text>
</g>
<!-- p0x7f2870401eb0&#45;&gt;p0x7f2870402bc0 -->
<g id="edge4" class="edge">
<title>p0x7f2870401eb0&#45;&gt;p0x7f2870402bc0</title>
<path fill="none" stroke="#000000" d="M165.371,-232.5708C170.4978,-224.1815 176.7569,-213.9392 182.4621,-204.6035"/>
<polygon fill="#000000" stroke="#000000" points="185.4792,-206.3785 187.7072,-196.0206 179.5062,-202.7283 185.4792,-206.3785"/>
</g>
<!-- p0x7f2870402310&#45;&gt;p0x55b2191178a8 -->
<g id="edge5" class="edge">
<title>p0x7f2870402310&#45;&gt;p0x55b2191178a8</title>
<path fill="none" stroke="#000000" d="M165.371,-88.5708C170.4978,-80.1815 176.7569,-69.9392 182.4621,-60.6035"/>
<polygon fill="#000000" stroke="#000000" points="185.4792,-62.3785 187.7072,-52.0206 179.5062,-58.7283 185.4792,-62.3785"/>
</g>
<!-- p0x7f2870402780&#45;&gt;p0x55b2191178a8 -->
<g id="edge6" class="edge">
<title>p0x7f2870402780&#45;&gt;p0x55b2191178a8</title>
<path fill="none" stroke="#000000" d="M232.0686,-88.5708C226.9418,-80.1815 220.6827,-69.9392 214.9775,-60.6035"/>
<polygon fill="#000000" stroke="#000000" points="217.9334,-58.7283 209.7324,-52.0206 211.9604,-62.3785 217.9334,-58.7283"/>
</g>
</g>
</svg>
