<?xml version="1.0" encoding="UTF-8" standalone="no"?><!DOCTYPE svg PUBLIC "-//W3C//DTD SVG 1.1//EN" "http://www.w3.org/Graphics/SVG/1.1/DTD/svg11.dtd"><!-- Generated by graphviz version 2.40.1 (20161225.0304)
 --><!-- Title: Taskflow Pages: 1 --><svg xmlns="http://www.w3.org/2000/svg" xmlns:xlink="http://www.w3.org/1999/xlink" width="347pt" height="143pt" viewBox="0.00 0.00 347.00 142.80">
<g id="graph0" class="graph" transform="scale(1 1) rotate(0) translate(4 138.8)">
<title>Taskflow</title>
<polygon fill="#ffffff" stroke="transparent" points="-4,4 -4,-138.8 343,-138.8 343,4 -4,4"/>
<!-- A -->
<g id="node1" class="node">
<title>A</title>
<ellipse fill="none" stroke="#000000" cx="27" cy="-44" rx="27" ry="18"/>
<text text-anchor="middle" x="27" y="-39.8" font-family="Times,serif" font-size="14.00" fill="#000000">A</text>
</g>
<!-- B -->
<g id="node2" class="node">
<title>B</title>
<ellipse fill="none" stroke="#000000" cx="118" cy="-72" rx="27" ry="18"/>
<text text-anchor="middle" x="118" y="-67.8" font-family="Times,serif" font-size="14.00" fill="#000000">B</text>
</g>
<!-- A&#45;&gt;B -->
<g id="edge1" class="edge">
<title>A-&gt;B</title>
<path fill="none" stroke="#000000" d="M51.8661,-51.6511C61.6764,-54.6697 73.1102,-58.1878 83.6848,-61.4415"/>
<polygon fill="#000000" stroke="#000000" points="82.8919,-64.8594 93.479,-64.4551 84.9505,-58.1689 82.8919,-64.8594"/>
</g>
<!-- C -->
<g id="node3" class="node">
<title>C</title>
<ellipse fill="none" stroke="#000000" cx="118" cy="-18" rx="27" ry="18"/>
<text text-anchor="middle" x="118" y="-13.8" font-family="Times,serif" font-size="14.00" fill="#000000">C</text>
</g>
<!-- A&#45;&gt;C -->
<g id="edge2" class="edge">
<title>A-&gt;C</title>
<path fill="none" stroke="#000000" d="M51.8661,-36.8954C61.5966,-34.1152 72.9244,-30.8787 83.4267,-27.8781"/>
<polygon fill="#000000" stroke="#000000" points="84.5102,-31.2086 93.1639,-25.096 82.5871,-24.478 84.5102,-31.2086"/>
</g>
<!-- D -->
<g id="node4" class="node">
<title>D</title>
<polygon fill="#7fffd4" stroke="#000000" points="215,-100 188,-82 215,-64 242,-82 215,-100"/>
<text text-anchor="middle" x="215" y="-77.8" font-family="Times,serif" font-size="14.00" fill="#000000">D</text>
</g>
<!-- B&#45;&gt;D -->
<g id="edge3" class="edge">
<title>B-&gt;D</title>
<path fill="none" stroke="#000000" d="M144.5945,-76.5728C150.6313,-77.4893 157.0248,-78.3644 163,-79 168.2056,-79.5537 173.7159,-80.0104 179.1271,-80.3857"/>
<polygon fill="#000000" stroke="#000000" points="179.1084,-83.891 189.3043,-81.011 179.5378,-76.9042 179.1084,-83.891"/>
</g>
<!-- F -->
<g id="node6" class="node">
<title>F</title>
<ellipse fill="none" stroke="#000000" cx="215" cy="-18" rx="27" ry="18"/>
<text text-anchor="middle" x="215" y="-13.8" font-family="Times,serif" font-size="14.00" fill="#000000">F</text>
</g>
<!-- C&#45;&gt;F -->
<g id="edge7" class="edge">
<title>C-&gt;F</title>
<path fill="none" stroke="#000000" d="M145.0199,-18C155.1304,-18 166.8016,-18 177.6794,-18"/>
<polygon fill="#000000" stroke="#000000" points="177.7886,-21.5001 187.7886,-18 177.7885,-14.5001 177.7886,-21.5001"/>
</g>
<!-- D&#45;&gt;B -->
<g id="edge4" class="edge">
<title>D-&gt;B</title>
<path fill="none" stroke="#000000" stroke-dasharray="5,2" d="M201.5238,-72.6353C192.9329,-67.2497 181.3226,-61.0098 170,-58.2 163.3002,-56.5374 156.1348,-56.9849 149.3311,-58.4628"/>
<polygon fill="#000000" stroke="#000000" points="148.354,-55.1019 139.718,-61.2395 150.2965,-61.8269 148.354,-55.1019"/>
<text text-anchor="middle" x="166.5" y="-62.2" font-family="Times,serif" font-size="14.00" fill="#000000">0</text>
</g>
<!-- D&#45;&gt;D -->
<g id="edge5" class="edge">
<title>D-&gt;D</title>
<path fill="none" stroke="#000000" stroke-dasharray="5,2" d="M207.3733,-95.2925C204.114,-106.397 206.6563,-118 215,-118 220.7363,-118 223.7305,-112.5158 223.9826,-105.4797"/>
<polygon fill="#000000" stroke="#000000" points="227.4156,-104.7433 222.6267,-95.2925 220.4768,-105.6669 227.4156,-104.7433"/>
<text text-anchor="middle" x="215" y="-122.2" font-family="Times,serif" font-size="14.00" fill="#000000">1</text>
</g>
<!-- E -->
<g id="node5" class="node">
<title>E</title>
<ellipse fill="none" stroke="#000000" cx="312" cy="-82" rx="27" ry="18"/>
<text text-anchor="middle" x="312" y="-77.8" font-family="Times,serif" font-size="14.00" fill="#000000">E</text>
</g>
<!-- D&#45;&gt;E -->
<g id="edge6" class="edge">
<title>D-&gt;E</title>
<path fill="none" stroke="#000000" stroke-dasharray="5,2" d="M242.0199,-82C252.1304,-82 263.8016,-82 274.6794,-82"/>
<polygon fill="#000000" stroke="#000000" points="274.7886,-85.5001 284.7886,-82 274.7885,-78.5001 274.7886,-85.5001"/>
<text text-anchor="middle" x="263.5" y="-86.2" font-family="Times,serif" font-size="14.00" fill="#000000">2</text>
</g>
</g>
</svg>