<?xml version="1.0" encoding="UTF-8" standalone="no"?><!DOCTYPE svg PUBLIC "-//W3C//DTD SVG 1.1//EN" "http://www.w3.org/Graphics/SVG/1.1/DTD/svg11.dtd"><!-- Generated by graphviz version 2.40.1 (20161225.0304)
 --><!-- Title: Taskflow Pages: 1 --><svg xmlns="http://www.w3.org/2000/svg" xmlns:xlink="http://www.w3.org/1999/xlink" width="316pt" height="422pt" viewBox="0.00 0.00 316.00 421.60">
<g id="graph0" class="graph" transform="scale(1 1) rotate(0) translate(4 417.6)">
<title>Taskflow</title>
<polygon fill="#ffffff" stroke="transparent" points="-4,4 -4,-417.6 312,-417.6 312,4 -4,4"/>
<g id="clust1" class="cluster">
<title>cluster_p0x7ffc8dea6f60</title>
<polygon fill="none" stroke="#000000" points="8,-8 8,-405.6 300,-405.6 300,-8 8,-8"/>
<text text-anchor="middle" x="154" y="-389" font-family="Times,serif" font-size="14.00" fill="#000000">Main taskflow</text>
</g>
<g id="clust2" class="cluster">
<title>cluster_p0x56512e2a4730</title>
<polygon fill="none" stroke="#0000ff" points="78,-80 78,-372.8 292,-372.8 292,-80 78,-80"/>
<text text-anchor="middle" x="185" y="-356.2" font-family="Times,serif" font-size="14.00" fill="#000000">Subflow: B</text>
</g>
<!-- p0x56512e2a43c0 -->
<g id="node1" class="node">
<title>p0x56512e2a43c0</title>
<ellipse fill="none" stroke="#000000" cx="43" cy="-178" rx="27" ry="18"/>
<text text-anchor="middle" x="43" y="-173.8" font-family="Times,serif" font-size="14.00" fill="#000000">A</text>
</g>
<!-- p0x56512e2a4730 -->
<g id="node2" class="node">
<title>p0x56512e2a4730</title>
<ellipse fill="none" stroke="#000000" cx="115" cy="-106" rx="27" ry="18"/>
<text text-anchor="middle" x="115" y="-101.8" font-family="Times,serif" font-size="14.00" fill="#000000">B</text>
</g>
<!-- p0x56512e2a43c0&#45;&gt;p0x56512e2a4730 -->
<g id="edge1" class="edge">
<title>p0x56512e2a43c0-&gt;p0x56512e2a4730</title>
<path fill="none" stroke="#000000" d="M58.2693,-162.7307C68.197,-152.803 81.3153,-139.6847 92.4363,-128.5637"/>
<polygon fill="#000000" stroke="#000000" points="95.1564,-130.7933 99.7527,-121.2473 90.2067,-125.8436 95.1564,-130.7933"/>
</g>
<!-- p0x56512e2a44f0 -->
<g id="node3" class="node">
<title>p0x56512e2a44f0</title>
<ellipse fill="none" stroke="#000000" cx="43" cy="-106" rx="27" ry="18"/>
<text text-anchor="middle" x="43" y="-101.8" font-family="Times,serif" font-size="14.00" fill="#000000">C</text>
</g>
<!-- p0x56512e2a43c0&#45;&gt;p0x56512e2a44f0 -->
<g id="edge2" class="edge">
<title>p0x56512e2a43c0-&gt;p0x56512e2a44f0</title>
<path fill="none" stroke="#000000" d="M43,-159.8314C43,-152.131 43,-142.9743 43,-134.4166"/>
<polygon fill="#000000" stroke="#000000" points="46.5001,-134.4132 43,-124.4133 39.5001,-134.4133 46.5001,-134.4132"/>
</g>
<!-- p0x56512e2a4620 -->
<g id="node4" class="node">
<title>p0x56512e2a4620</title>
<ellipse fill="none" stroke="#000000" cx="79" cy="-34" rx="27" ry="18"/>
<text text-anchor="middle" x="79" y="-29.8" font-family="Times,serif" font-size="14.00" fill="#000000">D</text>
</g>
<!-- p0x56512e2a4730&#45;&gt;p0x56512e2a4620 -->
<g id="edge4" class="edge">
<title>p0x56512e2a4730-&gt;p0x56512e2a4620</title>
<path fill="none" stroke="#000000" d="M106.2854,-88.5708C102.0403,-80.0807 96.8464,-69.6929 92.1337,-60.2674"/>
<polygon fill="#000000" stroke="#000000" points="95.237,-58.6477 87.6343,-51.2687 88.976,-61.7782 95.237,-58.6477"/>
</g>
<!-- p0x56512e2a44f0&#45;&gt;p0x56512e2a4620 -->
<g id="edge3" class="edge">
<title>p0x56512e2a44f0-&gt;p0x56512e2a4620</title>
<path fill="none" stroke="#000000" d="M51.7146,-88.5708C55.9597,-80.0807 61.1536,-69.6929 65.8663,-60.2674"/>
<polygon fill="#000000" stroke="#000000" points="69.024,-61.7782 70.3657,-51.2687 62.763,-58.6477 69.024,-61.7782"/>
</g>
<!-- p0x7f152c000b20 -->
<g id="node5" class="node">
<title>p0x7f152c000b20</title>
<ellipse fill="none" stroke="#000000" cx="185" cy="-322" rx="27" ry="18"/>
<text text-anchor="middle" x="185" y="-317.8" font-family="Times,serif" font-size="14.00" fill="#000000">B0</text>
</g>
<!-- p0x7f152c000c50 -->
<g id="node6" class="node">
<title>p0x7f152c000c50</title>
<ellipse fill="none" stroke="#000000" cx="113" cy="-250" rx="27" ry="18"/>
<text text-anchor="middle" x="113" y="-245.8" font-family="Times,serif" font-size="14.00" fill="#000000">B1</text>
</g>
<!-- p0x7f152c000b20&#45;&gt;p0x7f152c000c50 -->
<g id="edge5" class="edge">
<title>p0x7f152c000b20-&gt;p0x7f152c000c50</title>
<path fill="none" stroke="#000000" d="M169.7307,-306.7307C159.803,-296.803 146.6847,-283.6847 135.5637,-272.5637"/>
<polygon fill="#000000" stroke="#000000" points="137.7933,-269.8436 128.2473,-265.2473 132.8436,-274.7933 137.7933,-269.8436"/>
</g>
<!-- p0x7f152c000d80 -->
<g id="node7" class="node">
<title>p0x7f152c000d80</title>
<ellipse fill="none" stroke="#000000" cx="185" cy="-250" rx="27" ry="18"/>
<text text-anchor="middle" x="185" y="-245.8" font-family="Times,serif" font-size="14.00" fill="#000000">B2</text>
</g>
<!-- p0x7f152c000b20&#45;&gt;p0x7f152c000d80 -->
<g id="edge6" class="edge">
<title>p0x7f152c000b20-&gt;p0x7f152c000d80</title>
<path fill="none" stroke="#000000" d="M185,-303.8314C185,-296.131 185,-286.9743 185,-278.4166"/>
<polygon fill="#000000" stroke="#000000" points="188.5001,-278.4132 185,-268.4133 181.5001,-278.4133 188.5001,-278.4132"/>
</g>
<!-- p0x7f152c000ec0 -->
<g id="node8" class="node">
<title>p0x7f152c000ec0</title>
<ellipse fill="none" stroke="#000000" cx="257" cy="-250" rx="27" ry="18"/>
<text text-anchor="middle" x="257" y="-245.8" font-family="Times,serif" font-size="14.00" fill="#000000">B3</text>
</g>
<!-- p0x7f152c000b20&#45;&gt;p0x7f152c000ec0 -->
<g id="edge7" class="edge">
<title>p0x7f152c000b20-&gt;p0x7f152c000ec0</title>
<path fill="none" stroke="#000000" d="M200.2693,-306.7307C210.197,-296.803 223.3153,-283.6847 234.4363,-272.5637"/>
<polygon fill="#000000" stroke="#000000" points="237.1564,-274.7933 241.7527,-265.2473 232.2067,-269.8436 237.1564,-274.7933"/>
</g>
<!-- p0x7f152c000fd0 -->
<g id="node9" class="node">
<title>p0x7f152c000fd0</title>
<ellipse fill="none" stroke="#000000" cx="150" cy="-178" rx="27" ry="18"/>
<text text-anchor="middle" x="150" y="-173.8" font-family="Times,serif" font-size="14.00" fill="#000000">B4</text>
</g>
<!-- p0x7f152c000c50&#45;&gt;p0x7f152c000fd0 -->
<g id="edge8" class="edge">
<title>p0x7f152c000c50-&gt;p0x7f152c000fd0</title>
<path fill="none" stroke="#000000" d="M121.7685,-232.937C126.1279,-224.4537 131.4953,-214.0092 136.3753,-204.513"/>
<polygon fill="#000000" stroke="#000000" points="139.5797,-205.9348 141.0374,-195.4407 133.3537,-202.7352 139.5797,-205.9348"/>
</g>
<!-- p0x7f152c000d80&#45;&gt;p0x7f152c000fd0 -->
<g id="edge9" class="edge">
<title>p0x7f152c000d80-&gt;p0x7f152c000fd0</title>
<path fill="none" stroke="#000000" d="M176.5275,-232.5708C172.4003,-224.0807 167.3507,-213.6929 162.7689,-204.2674"/>
<polygon fill="#000000" stroke="#000000" points="165.9143,-202.7322 158.3945,-195.2687 159.6187,-205.7926 165.9143,-202.7322"/>
</g>
<!-- p0x7f152c000ec0&#45;&gt;p0x7f152c000fd0 -->
<g id="edge10" class="edge">
<title>p0x7f152c000ec0-&gt;p0x7f152c000fd0</title>
<path fill="none" stroke="#000000" d="M237.8705,-237.1278C221.161,-225.884 196.6943,-209.4204 177.8188,-196.7192"/>
<polygon fill="#000000" stroke="#000000" points="179.5752,-193.6824 169.3246,-191.0035 175.6672,-199.4901 179.5752,-193.6824"/>
</g>
<!-- p0x7f152c000fd0&#45;&gt;p0x56512e2a4730 -->
<g id="edge11" class="edge">
<title>p0x7f152c000fd0-&gt;p0x56512e2a4730</title>
<path fill="none" stroke="#000000" d="M141.5275,-160.5708C137.4003,-152.0807 132.3507,-141.6929 127.7689,-132.2674"/>
<polygon fill="#000000" stroke="#000000" points="130.9143,-130.7322 123.3945,-123.2687 124.6187,-133.7926 130.9143,-130.7322"/>
</g>
</g>
</svg>